<svg width="361" height="390" viewBox="0 0 361 390" fill="none" xmlns="http://www.w3.org/2000/svg">
<g filter="url(#filter0_d_824_14100)">
<rect x="17" y="37" width="327" height="71.7635" rx="6" fill="white"/>
</g>
<rect x="33" y="90" width="295" height="3" rx="1.5" fill="#DDD1FB"/>
<rect x="32.936" y="90.1458" width="129" height="3" rx="1.5" fill="#692CFF"/>
<path d="M44.2676 68.3828C43.793 68.9512 43.1221 69.3936 42.2549 69.71C41.3877 70.0205 40.4268 70.1758 39.3721 70.1758C38.2646 70.1758 37.292 69.9355 36.4541 69.4551C35.6221 68.9688 34.9775 68.2656 34.5205 67.3457C34.0693 66.4258 33.8379 65.3447 33.8262 64.1025V63.2324C33.8262 61.9551 34.04 60.8506 34.4678 59.9189C34.9014 58.9814 35.5225 58.2666 36.3311 57.7744C37.1455 57.2764 38.0977 57.0273 39.1875 57.0273C40.7051 57.0273 41.8916 57.3906 42.7471 58.1172C43.6025 58.8379 44.1094 59.8896 44.2676 61.2725H41.7012C41.584 60.54 41.3232 60.0039 40.9189 59.6641C40.5205 59.3242 39.9697 59.1543 39.2666 59.1543C38.3701 59.1543 37.6875 59.4912 37.2188 60.165C36.75 60.8389 36.5127 61.8408 36.5068 63.1709V63.9883C36.5068 65.3301 36.7617 66.3438 37.2715 67.0293C37.7812 67.7148 38.5283 68.0576 39.5127 68.0576C40.5029 68.0576 41.209 67.8467 41.6309 67.4248V65.2188H39.2314V63.2764H44.2676V68.3828ZM48.9258 70H46.377V60.4902H48.9258V70ZM46.2275 58.0293C46.2275 57.6484 46.3535 57.335 46.6055 57.0889C46.8633 56.8428 47.2119 56.7197 47.6514 56.7197C48.085 56.7197 48.4307 56.8428 48.6885 57.0889C48.9463 57.335 49.0752 57.6484 49.0752 58.0293C49.0752 58.416 48.9434 58.7324 48.6797 58.9785C48.4219 59.2246 48.0791 59.3477 47.6514 59.3477C47.2236 59.3477 46.8779 59.2246 46.6143 58.9785C46.3564 58.7324 46.2275 58.416 46.2275 58.0293ZM54.5859 66.8975L56.3525 60.4902H59.0068L55.7988 70H53.373L50.165 60.4902H52.8193L54.5859 66.8975ZM62.8125 70H60.2637V60.4902H62.8125V70ZM60.1143 58.0293C60.1143 57.6484 60.2402 57.335 60.4922 57.0889C60.75 56.8428 61.0986 56.7197 61.5381 56.7197C61.9717 56.7197 62.3174 56.8428 62.5752 57.0889C62.833 57.335 62.9619 57.6484 62.9619 58.0293C62.9619 58.416 62.8301 58.7324 62.5664 58.9785C62.3086 59.2246 61.9658 59.3477 61.5381 59.3477C61.1104 59.3477 60.7646 59.2246 60.501 58.9785C60.2432 58.7324 60.1143 58.416 60.1143 58.0293ZM67.251 60.4902L67.3301 61.5889C68.0098 60.7393 68.9209 60.3145 70.0635 60.3145C71.0713 60.3145 71.8213 60.6104 72.3135 61.2021C72.8057 61.7939 73.0576 62.6787 73.0693 63.8564V70H70.5293V63.918C70.5293 63.3789 70.4121 62.9893 70.1777 62.749C69.9434 62.5029 69.5537 62.3799 69.0088 62.3799C68.2939 62.3799 67.7578 62.6846 67.4004 63.2939V70H64.8604V60.4902H67.251ZM74.6338 65.1748C74.6338 63.7158 74.9795 62.541 75.6709 61.6504C76.3682 60.7598 77.3057 60.3145 78.4834 60.3145C79.5264 60.3145 80.3379 60.6719 80.918 61.3867L81.0234 60.4902H83.3262V69.6836C83.3262 70.5156 83.1357 71.2393 82.7549 71.8545C82.3799 72.4697 81.8496 72.9385 81.1641 73.2607C80.4785 73.583 79.6758 73.7441 78.7559 73.7441C78.0586 73.7441 77.3789 73.6035 76.7168 73.3223C76.0547 73.0469 75.5537 72.6895 75.2139 72.25L76.3389 70.7031C76.9717 71.4121 77.7393 71.7666 78.6416 71.7666C79.3154 71.7666 79.8398 71.585 80.2148 71.2217C80.5898 70.8643 80.7773 70.3545 80.7773 69.6924V69.1826C80.1914 69.8447 79.4209 70.1758 78.4658 70.1758C77.3232 70.1758 76.3975 69.7305 75.6885 68.8398C74.9854 67.9434 74.6338 66.7568 74.6338 65.2803V65.1748ZM77.1738 65.3594C77.1738 66.2207 77.3467 66.8975 77.6924 67.3896C78.0381 67.876 78.5127 68.1191 79.1162 68.1191C79.8896 68.1191 80.4434 67.8291 80.7773 67.249V63.25C80.4375 62.6699 79.8896 62.3799 79.1338 62.3799C78.5244 62.3799 78.0439 62.6289 77.6924 63.127C77.3467 63.625 77.1738 64.3691 77.1738 65.3594ZM98.3379 65.333C98.3379 66.8564 98.0127 68.0459 97.3623 68.9014C96.7119 69.751 95.8037 70.1758 94.6377 70.1758C93.6064 70.1758 92.7832 69.7803 92.168 68.9893L92.0537 70H89.7686V56.5H92.3086V61.3428C92.8945 60.6572 93.665 60.3145 94.6201 60.3145C95.7803 60.3145 96.6885 60.7422 97.3447 61.5977C98.0068 62.4473 98.3379 63.6455 98.3379 65.1924V65.333ZM95.7979 65.1484C95.7979 64.1875 95.6455 63.4873 95.3408 63.0479C95.0361 62.6025 94.582 62.3799 93.9785 62.3799C93.1699 62.3799 92.6133 62.7109 92.3086 63.373V67.126C92.6191 67.7939 93.1816 68.1279 93.9961 68.1279C94.8164 68.1279 95.3555 67.7236 95.6133 66.915C95.7363 66.5283 95.7979 65.9395 95.7979 65.1484ZM102.592 70H100.043V60.4902H102.592V70ZM99.8936 58.0293C99.8936 57.6484 100.02 57.335 100.271 57.0889C100.529 56.8428 100.878 56.7197 101.317 56.7197C101.751 56.7197 102.097 56.8428 102.354 57.0889C102.612 57.335 102.741 57.6484 102.741 58.0293C102.741 58.416 102.609 58.7324 102.346 58.9785C102.088 59.2246 101.745 59.3477 101.317 59.3477C100.89 59.3477 100.544 59.2246 100.28 58.9785C100.022 58.7324 99.8936 58.416 99.8936 58.0293ZM110.036 62.8721C109.69 62.8252 109.386 62.8018 109.122 62.8018C108.161 62.8018 107.531 63.127 107.232 63.7773V70H104.692V60.4902H107.092L107.162 61.624C107.672 60.751 108.378 60.3145 109.28 60.3145C109.562 60.3145 109.825 60.3525 110.071 60.4287L110.036 62.8721ZM114.747 58.1523V60.4902H116.373V62.3535H114.747V67.0996C114.747 67.4512 114.814 67.7031 114.949 67.8555C115.084 68.0078 115.342 68.084 115.723 68.084C116.004 68.084 116.253 68.0635 116.47 68.0225V69.9473C115.972 70.0996 115.459 70.1758 114.932 70.1758C113.15 70.1758 112.242 69.2764 112.207 67.4775V62.3535H110.818V60.4902H112.207V58.1523H114.747ZM120.267 61.5273C120.94 60.7188 121.787 60.3145 122.807 60.3145C124.869 60.3145 125.915 61.5127 125.944 63.9092V70H123.404V63.9795C123.404 63.4346 123.287 63.0332 123.053 62.7754C122.818 62.5117 122.429 62.3799 121.884 62.3799C121.14 62.3799 120.601 62.667 120.267 63.2412V70H117.727V56.5H120.267V61.5273Z" fill="#0C0029"/>
<path d="M302.299 71H296.709V70.2207L299.662 66.9395C300.1 66.4434 300.4 66.041 300.564 65.7324C300.732 65.4199 300.816 65.0977 300.816 64.7656C300.816 64.3203 300.682 63.9551 300.412 63.6699C300.143 63.3848 299.783 63.2422 299.334 63.2422C298.795 63.2422 298.375 63.3965 298.074 63.7051C297.777 64.0098 297.629 64.4355 297.629 64.9824H296.545C296.545 64.1973 296.797 63.5625 297.301 63.0781C297.809 62.5938 298.486 62.3516 299.334 62.3516C300.127 62.3516 300.754 62.5605 301.215 62.9785C301.676 63.3926 301.906 63.9453 301.906 64.6367C301.906 65.4766 301.371 66.4766 300.301 67.6367L298.016 70.1152H302.299V71ZM303.775 71.7324H302.844L306.406 62.4688H307.332L303.775 71.7324ZM308.891 66.7227L309.324 62.4688H313.695V63.4707H310.244L309.986 65.7969C310.404 65.5508 310.879 65.4277 311.41 65.4277C312.188 65.4277 312.805 65.6855 313.262 66.2012C313.719 66.7129 313.947 67.4062 313.947 68.2812C313.947 69.1602 313.709 69.8535 313.232 70.3613C312.76 70.8652 312.098 71.1172 311.246 71.1172C310.492 71.1172 309.877 70.9082 309.4 70.4902C308.924 70.0723 308.652 69.4941 308.586 68.7559H309.611C309.678 69.2441 309.852 69.6133 310.133 69.8633C310.414 70.1094 310.785 70.2324 311.246 70.2324C311.75 70.2324 312.145 70.0605 312.43 69.7168C312.719 69.373 312.863 68.8984 312.863 68.293C312.863 67.7227 312.707 67.2656 312.395 66.9219C312.086 66.5742 311.674 66.4004 311.158 66.4004C310.686 66.4004 310.314 66.5039 310.045 66.7109L309.758 66.9453L308.891 66.7227Z" fill="#7C7195"/>
<g filter="url(#filter1_d_824_14100)">
<rect x="17" y="124.763" width="327" height="71.7635" rx="6" fill="white"/>
</g>
<rect x="33" y="177.763" width="295" height="3" rx="1.5" fill="#DDD1FB"/>
<rect x="32.936" y="178.146" width="241" height="3" rx="1.5" fill="#692CFF"/>
<path d="M44.1885 153.501C44.0889 154.878 43.5791 155.962 42.6592 156.753C41.7451 157.544 40.5381 157.939 39.0381 157.939C37.3975 157.939 36.1055 157.388 35.1621 156.287C34.2246 155.179 33.7559 153.662 33.7559 151.734V150.952C33.7559 149.721 33.9727 148.637 34.4062 147.7C34.8398 146.762 35.458 146.045 36.2607 145.547C37.0693 145.043 38.0068 144.791 39.0732 144.791C40.5498 144.791 41.7393 145.186 42.6416 145.977C43.5439 146.768 44.0654 147.879 44.2061 149.308H41.5693C41.5049 148.482 41.2734 147.885 40.875 147.515C40.4824 147.14 39.8818 146.953 39.0732 146.953C38.1943 146.953 37.5352 147.269 37.0957 147.902C36.6621 148.529 36.4395 149.505 36.4277 150.829V151.796C36.4277 153.178 36.6357 154.189 37.0518 154.828C37.4736 155.467 38.1357 155.786 39.0381 155.786C39.8525 155.786 40.459 155.601 40.8574 155.232C41.2617 154.857 41.4932 154.28 41.5518 153.501H44.1885ZM45.3574 152.921C45.3574 151.977 45.5391 151.136 45.9023 150.398C46.2656 149.66 46.7871 149.089 47.4668 148.684C48.1523 148.28 48.9463 148.078 49.8486 148.078C51.1318 148.078 52.1777 148.47 52.9863 149.256C53.8008 150.041 54.2549 151.107 54.3486 152.455L54.3662 153.105C54.3662 154.564 53.959 155.736 53.1445 156.621C52.3301 157.5 51.2373 157.939 49.8662 157.939C48.4951 157.939 47.3994 157.5 46.5791 156.621C45.7646 155.742 45.3574 154.547 45.3574 153.035V152.921ZM47.8975 153.105C47.8975 154.008 48.0674 154.699 48.4072 155.179C48.7471 155.654 49.2334 155.891 49.8662 155.891C50.4814 155.891 50.9619 155.657 51.3076 155.188C51.6533 154.714 51.8262 153.958 51.8262 152.921C51.8262 152.036 51.6533 151.35 51.3076 150.864C50.9619 150.378 50.4756 150.135 49.8486 150.135C49.2275 150.135 48.7471 150.378 48.4072 150.864C48.0674 151.344 47.8975 152.092 47.8975 153.105ZM58.3125 148.254L58.3916 149.317C59.0654 148.491 59.9766 148.078 61.125 148.078C62.3496 148.078 63.1904 148.561 63.6475 149.528C64.3154 148.561 65.2676 148.078 66.5039 148.078C67.5352 148.078 68.3027 148.38 68.8066 148.983C69.3105 149.581 69.5625 150.483 69.5625 151.69V157.763H67.0137V151.699C67.0137 151.16 66.9082 150.767 66.6973 150.521C66.4863 150.269 66.1143 150.143 65.5811 150.143C64.8193 150.143 64.292 150.507 63.999 151.233L64.0078 157.763H61.4678V151.708C61.4678 151.157 61.3594 150.759 61.1426 150.512C60.9258 150.266 60.5566 150.143 60.0352 150.143C59.3145 150.143 58.793 150.442 58.4707 151.04V157.763H55.9307V148.254H58.3125ZM80.083 153.096C80.083 154.561 79.749 155.736 79.0811 156.621C78.4189 157.5 77.5225 157.939 76.3916 157.939C75.4307 157.939 74.6543 157.605 74.0625 156.937V161.42H71.5225V148.254H73.8779L73.9658 149.185C74.5811 148.447 75.3838 148.078 76.374 148.078C77.5459 148.078 78.457 148.511 79.1074 149.379C79.7578 150.246 80.083 151.441 80.083 152.965V153.096ZM77.543 152.912C77.543 152.027 77.3848 151.344 77.0684 150.864C76.7578 150.384 76.3037 150.143 75.7061 150.143C74.9092 150.143 74.3613 150.448 74.0625 151.057V154.951C74.373 155.578 74.9268 155.891 75.7236 155.891C76.9365 155.891 77.543 154.898 77.543 152.912ZM87.1758 157.763C87.0586 157.535 86.9736 157.251 86.9209 156.911C86.3057 157.596 85.5059 157.939 84.5215 157.939C83.5898 157.939 82.8164 157.67 82.2012 157.131C81.5918 156.592 81.2871 155.912 81.2871 155.092C81.2871 154.084 81.6592 153.31 82.4033 152.771C83.1533 152.232 84.2344 151.96 85.6465 151.954H86.8154V151.409C86.8154 150.969 86.7012 150.618 86.4727 150.354C86.25 150.091 85.8955 149.959 85.4092 149.959C84.9814 149.959 84.6445 150.061 84.3984 150.266C84.1582 150.471 84.0381 150.753 84.0381 151.11H81.498C81.498 150.559 81.668 150.05 82.0078 149.581C82.3477 149.112 82.8281 148.746 83.4492 148.482C84.0703 148.213 84.7676 148.078 85.541 148.078C86.7129 148.078 87.6416 148.374 88.3271 148.966C89.0186 149.552 89.3643 150.378 89.3643 151.444V155.566C89.3701 156.469 89.4961 157.151 89.7422 157.614V157.763H87.1758ZM85.0752 155.997C85.4502 155.997 85.7959 155.915 86.1123 155.751C86.4287 155.581 86.6631 155.355 86.8154 155.074V153.439H85.8662C84.5947 153.439 83.918 153.879 83.8359 154.758L83.8271 154.907C83.8271 155.223 83.9385 155.484 84.1611 155.689C84.3838 155.894 84.6885 155.997 85.0752 155.997ZM93.6533 148.254L93.7324 149.352C94.4121 148.503 95.3232 148.078 96.4658 148.078C97.4736 148.078 98.2236 148.374 98.7158 148.966C99.208 149.557 99.46 150.442 99.4717 151.62V157.763H96.9316V151.681C96.9316 151.142 96.8145 150.753 96.5801 150.512C96.3457 150.266 95.9561 150.143 95.4111 150.143C94.6963 150.143 94.1602 150.448 93.8027 151.057V157.763H91.2627V148.254H93.6533ZM104.086 157.763H101.537V148.254H104.086V157.763ZM101.388 145.793C101.388 145.412 101.514 145.098 101.766 144.852C102.023 144.606 102.372 144.483 102.812 144.483C103.245 144.483 103.591 144.606 103.849 144.852C104.106 145.098 104.235 145.412 104.235 145.793C104.235 146.179 104.104 146.496 103.84 146.742C103.582 146.988 103.239 147.111 102.812 147.111C102.384 147.111 102.038 146.988 101.774 146.742C101.517 146.496 101.388 146.179 101.388 145.793ZM105.791 152.921C105.791 151.977 105.973 151.136 106.336 150.398C106.699 149.66 107.221 149.089 107.9 148.684C108.586 148.28 109.38 148.078 110.282 148.078C111.565 148.078 112.611 148.47 113.42 149.256C114.234 150.041 114.688 151.107 114.782 152.455L114.8 153.105C114.8 154.564 114.393 155.736 113.578 156.621C112.764 157.5 111.671 157.939 110.3 157.939C108.929 157.939 107.833 157.5 107.013 156.621C106.198 155.742 105.791 154.547 105.791 153.035V152.921ZM108.331 153.105C108.331 154.008 108.501 154.699 108.841 155.179C109.181 155.654 109.667 155.891 110.3 155.891C110.915 155.891 111.396 155.657 111.741 155.188C112.087 154.714 112.26 153.958 112.26 152.921C112.26 152.036 112.087 151.35 111.741 150.864C111.396 150.378 110.909 150.135 110.282 150.135C109.661 150.135 109.181 150.378 108.841 150.864C108.501 151.344 108.331 152.092 108.331 153.105ZM118.702 148.254L118.781 149.352C119.461 148.503 120.372 148.078 121.515 148.078C122.522 148.078 123.272 148.374 123.765 148.966C124.257 149.557 124.509 150.442 124.521 151.62V157.763H121.98V151.681C121.98 151.142 121.863 150.753 121.629 150.512C121.395 150.266 121.005 150.143 120.46 150.143C119.745 150.143 119.209 150.448 118.852 151.057V157.763H116.312V148.254H118.702Z" fill="#0C0029"/>
<path d="M300.208 158.763H299.118V151.539L296.932 152.342V151.357L300.038 150.191H300.208V158.763ZM308.973 158.763H303.383V157.984L306.336 154.703C306.774 154.207 307.075 153.804 307.239 153.496C307.407 153.183 307.491 152.861 307.491 152.529C307.491 152.084 307.356 151.719 307.086 151.433C306.817 151.148 306.458 151.006 306.008 151.006C305.469 151.006 305.049 151.16 304.749 151.469C304.452 151.773 304.303 152.199 304.303 152.746H303.219C303.219 151.961 303.471 151.326 303.975 150.842C304.483 150.357 305.161 150.115 306.008 150.115C306.801 150.115 307.428 150.324 307.889 150.742C308.35 151.156 308.581 151.709 308.581 152.4C308.581 153.24 308.045 154.24 306.975 155.4L304.69 157.879H308.973V158.763ZM310.45 159.496H309.518L313.081 150.232H314.006L310.45 159.496ZM318.629 158.763H317.54V151.539L315.354 152.342V151.357L318.459 150.191H318.629V158.763ZM322.303 154.486L322.737 150.232H327.108V151.234H323.657L323.399 153.56C323.817 153.314 324.292 153.191 324.823 153.191C325.6 153.191 326.217 153.449 326.674 153.965C327.131 154.476 327.36 155.17 327.36 156.045C327.36 156.924 327.122 157.617 326.645 158.125C326.172 158.629 325.51 158.881 324.659 158.881C323.905 158.881 323.29 158.672 322.813 158.254C322.336 157.836 322.065 157.258 321.999 156.519H323.024C323.09 157.008 323.264 157.377 323.545 157.627C323.827 157.873 324.198 157.996 324.659 157.996C325.163 157.996 325.557 157.824 325.842 157.48C326.131 157.136 326.276 156.662 326.276 156.056C326.276 155.486 326.12 155.029 325.807 154.685C325.499 154.338 325.086 154.164 324.571 154.164C324.098 154.164 323.727 154.267 323.458 154.474L323.17 154.709L322.303 154.486Z" fill="#7C7195"/>
<g filter="url(#filter2_d_824_14100)">
<rect x="17" y="212.527" width="327" height="71.7635" rx="6" fill="white"/>
</g>
<rect x="33" y="265.527" width="295" height="3" rx="1.5" fill="#DDD1FB"/>
<rect x="32.936" y="265.146" width="298" height="3" rx="1.5" fill="#692CFF"/>
<path d="M36.7793 241.018V245.527H34.1426V232.73H39.1348C40.0957 232.73 40.9395 232.906 41.666 233.257C42.3984 233.609 42.9609 234.11 43.3535 234.76C43.7461 235.405 43.9424 236.14 43.9424 236.966C43.9424 238.22 43.5117 239.21 42.6504 239.937C41.7949 240.658 40.6084 241.018 39.0908 241.018H36.7793ZM36.7793 238.882H39.1348C39.832 238.882 40.3623 238.718 40.7256 238.39C41.0947 238.062 41.2793 237.593 41.2793 236.984C41.2793 236.357 41.0947 235.85 40.7256 235.463C40.3564 235.077 39.8467 234.877 39.1963 234.866H36.7793V238.882ZM51 245.527C50.8828 245.298 50.7979 245.014 50.7451 244.674C50.1299 245.36 49.3301 245.703 48.3457 245.703C47.4141 245.703 46.6406 245.433 46.0254 244.894C45.416 244.355 45.1113 243.675 45.1113 242.855C45.1113 241.847 45.4834 241.074 46.2275 240.535C46.9775 239.996 48.0586 239.723 49.4707 239.717H50.6396V239.172C50.6396 238.733 50.5254 238.381 50.2969 238.118C50.0742 237.854 49.7197 237.722 49.2334 237.722C48.8057 237.722 48.4688 237.825 48.2227 238.03C47.9824 238.235 47.8623 238.516 47.8623 238.874H45.3223C45.3223 238.323 45.4922 237.813 45.832 237.344C46.1719 236.875 46.6523 236.509 47.2734 236.246C47.8945 235.976 48.5918 235.841 49.3652 235.841C50.5371 235.841 51.4658 236.137 52.1514 236.729C52.8428 237.315 53.1885 238.141 53.1885 239.208V243.33C53.1943 244.232 53.3203 244.915 53.5664 245.377V245.527H51ZM48.8994 243.76C49.2744 243.76 49.6201 243.678 49.9365 243.514C50.2529 243.344 50.4873 243.119 50.6396 242.837V241.203H49.6904C48.4189 241.203 47.7422 241.642 47.6602 242.521L47.6514 242.67C47.6514 242.987 47.7627 243.248 47.9854 243.453C48.208 243.658 48.5127 243.76 48.8994 243.76ZM57.8203 245.527H55.2715V236.017H57.8203V245.527ZM55.1221 233.556C55.1221 233.175 55.248 232.862 55.5 232.616C55.7578 232.37 56.1064 232.247 56.5459 232.247C56.9795 232.247 57.3252 232.37 57.583 232.616C57.8408 232.862 57.9697 233.175 57.9697 233.556C57.9697 233.943 57.8379 234.259 57.5742 234.505C57.3164 234.751 56.9736 234.875 56.5459 234.875C56.1182 234.875 55.7725 234.751 55.5088 234.505C55.251 234.259 55.1221 233.943 55.1221 233.556ZM62.2588 236.017L62.3379 237.116C63.0176 236.266 63.9287 235.841 65.0713 235.841C66.0791 235.841 66.8291 236.137 67.3213 236.729C67.8135 237.321 68.0654 238.206 68.0771 239.383V245.527H65.5371V239.445C65.5371 238.906 65.4199 238.516 65.1855 238.276C64.9512 238.03 64.5615 237.907 64.0166 237.907C63.3018 237.907 62.7656 238.211 62.4082 238.821V245.527H59.8682V236.017H62.2588ZM76.875 236.017L76.9541 237.081C77.6279 236.254 78.5391 235.841 79.6875 235.841C80.9121 235.841 81.7529 236.325 82.21 237.292C82.8779 236.325 83.8301 235.841 85.0664 235.841C86.0977 235.841 86.8652 236.143 87.3691 236.747C87.873 237.344 88.125 238.247 88.125 239.454V245.527H85.5762V239.462C85.5762 238.923 85.4707 238.531 85.2598 238.285C85.0488 238.033 84.6768 237.907 84.1436 237.907C83.3818 237.907 82.8545 238.27 82.5615 238.997L82.5703 245.527H80.0303V239.471C80.0303 238.92 79.9219 238.522 79.7051 238.276C79.4883 238.03 79.1191 237.907 78.5977 237.907C77.877 237.907 77.3555 238.206 77.0332 238.803V245.527H74.4932V236.017H76.875ZM95.5957 245.527C95.4785 245.298 95.3936 245.014 95.3408 244.674C94.7256 245.36 93.9258 245.703 92.9414 245.703C92.0098 245.703 91.2363 245.433 90.6211 244.894C90.0117 244.355 89.707 243.675 89.707 242.855C89.707 241.847 90.0791 241.074 90.8232 240.535C91.5732 239.996 92.6543 239.723 94.0664 239.717H95.2354V239.172C95.2354 238.733 95.1211 238.381 94.8926 238.118C94.6699 237.854 94.3154 237.722 93.8291 237.722C93.4014 237.722 93.0645 237.825 92.8184 238.03C92.5781 238.235 92.458 238.516 92.458 238.874H89.918C89.918 238.323 90.0879 237.813 90.4277 237.344C90.7676 236.875 91.248 236.509 91.8691 236.246C92.4902 235.976 93.1875 235.841 93.9609 235.841C95.1328 235.841 96.0615 236.137 96.7471 236.729C97.4385 237.315 97.7842 238.141 97.7842 239.208V243.33C97.79 244.232 97.916 244.915 98.1621 245.377V245.527H95.5957ZM93.4951 243.76C93.8701 243.76 94.2158 243.678 94.5322 243.514C94.8486 243.344 95.083 243.119 95.2354 242.837V241.203H94.2861C93.0146 241.203 92.3379 241.642 92.2559 242.521L92.2471 242.67C92.2471 242.987 92.3584 243.248 92.5811 243.453C92.8037 243.658 93.1084 243.76 93.4951 243.76ZM102.073 236.017L102.152 237.116C102.832 236.266 103.743 235.841 104.886 235.841C105.894 235.841 106.644 236.137 107.136 236.729C107.628 237.321 107.88 238.206 107.892 239.383V245.527H105.352V239.445C105.352 238.906 105.234 238.516 105 238.276C104.766 238.03 104.376 237.907 103.831 237.907C103.116 237.907 102.58 238.211 102.223 238.821V245.527H99.6826V236.017H102.073ZM115.336 245.527C115.219 245.298 115.134 245.014 115.081 244.674C114.466 245.36 113.666 245.703 112.682 245.703C111.75 245.703 110.977 245.433 110.361 244.894C109.752 244.355 109.447 243.675 109.447 242.855C109.447 241.847 109.819 241.074 110.563 240.535C111.313 239.996 112.395 239.723 113.807 239.717H114.976V239.172C114.976 238.733 114.861 238.381 114.633 238.118C114.41 237.854 114.056 237.722 113.569 237.722C113.142 237.722 112.805 237.825 112.559 238.03C112.318 238.235 112.198 238.516 112.198 238.874H109.658C109.658 238.323 109.828 237.813 110.168 237.344C110.508 236.875 110.988 236.509 111.609 236.246C112.23 235.976 112.928 235.841 113.701 235.841C114.873 235.841 115.802 236.137 116.487 236.729C117.179 237.315 117.524 238.141 117.524 239.208V243.33C117.53 244.232 117.656 244.915 117.902 245.377V245.527H115.336ZM113.235 243.76C113.61 243.76 113.956 243.678 114.272 243.514C114.589 243.344 114.823 243.119 114.976 242.837V241.203H114.026C112.755 241.203 112.078 241.642 111.996 242.521L111.987 242.67C111.987 242.987 112.099 243.248 112.321 243.453C112.544 243.658 112.849 243.76 113.235 243.76ZM119.106 240.702C119.106 239.243 119.452 238.068 120.144 237.177C120.841 236.287 121.778 235.841 122.956 235.841C123.999 235.841 124.811 236.199 125.391 236.914L125.496 236.017H127.799V245.21C127.799 246.042 127.608 246.766 127.228 247.381C126.853 247.997 126.322 248.465 125.637 248.788C124.951 249.11 124.148 249.271 123.229 249.271C122.531 249.271 121.852 249.13 121.189 248.849C120.527 248.574 120.026 248.216 119.687 247.777L120.812 246.23C121.444 246.939 122.212 247.293 123.114 247.293C123.788 247.293 124.312 247.112 124.688 246.749C125.062 246.391 125.25 245.881 125.25 245.219V244.709C124.664 245.372 123.894 245.703 122.938 245.703C121.796 245.703 120.87 245.257 120.161 244.367C119.458 243.47 119.106 242.284 119.106 240.807V240.702ZM121.646 240.886C121.646 241.748 121.819 242.424 122.165 242.917C122.511 243.403 122.985 243.646 123.589 243.646C124.362 243.646 124.916 243.356 125.25 242.776V238.777C124.91 238.197 124.362 237.907 123.606 237.907C122.997 237.907 122.517 238.156 122.165 238.654C121.819 239.152 121.646 239.896 121.646 240.886ZM134.136 245.703C132.741 245.703 131.604 245.275 130.726 244.419C129.853 243.564 129.416 242.424 129.416 241V240.754C129.416 239.799 129.601 238.947 129.97 238.197C130.339 237.441 130.86 236.861 131.534 236.457C132.214 236.046 132.987 235.841 133.854 235.841C135.155 235.841 136.178 236.251 136.922 237.072C137.672 237.892 138.047 239.055 138.047 240.561V241.598H131.991C132.073 242.219 132.319 242.717 132.729 243.092C133.146 243.467 133.67 243.655 134.303 243.655C135.281 243.655 136.046 243.3 136.597 242.591L137.845 243.989C137.464 244.528 136.948 244.95 136.298 245.254C135.647 245.553 134.927 245.703 134.136 245.703ZM133.846 237.898C133.342 237.898 132.932 238.068 132.615 238.408C132.305 238.748 132.105 239.234 132.018 239.867H135.551V239.665C135.539 239.102 135.387 238.668 135.094 238.364C134.801 238.053 134.385 237.898 133.846 237.898ZM141.879 236.017L141.958 237.081C142.632 236.254 143.543 235.841 144.691 235.841C145.916 235.841 146.757 236.325 147.214 237.292C147.882 236.325 148.834 235.841 150.07 235.841C151.102 235.841 151.869 236.143 152.373 236.747C152.877 237.344 153.129 238.247 153.129 239.454V245.527H150.58V239.462C150.58 238.923 150.475 238.531 150.264 238.285C150.053 238.033 149.681 237.907 149.147 237.907C148.386 237.907 147.858 238.27 147.565 238.997L147.574 245.527H145.034V239.471C145.034 238.92 144.926 238.522 144.709 238.276C144.492 238.03 144.123 237.907 143.602 237.907C142.881 237.907 142.359 238.206 142.037 238.803V245.527H139.497V236.017H141.879ZM159.466 245.703C158.071 245.703 156.935 245.275 156.056 244.419C155.183 243.564 154.746 242.424 154.746 241V240.754C154.746 239.799 154.931 238.947 155.3 238.197C155.669 237.441 156.19 236.861 156.864 236.457C157.544 236.046 158.317 235.841 159.185 235.841C160.485 235.841 161.508 236.251 162.252 237.072C163.002 237.892 163.377 239.055 163.377 240.561V241.598H157.321C157.403 242.219 157.649 242.717 158.06 243.092C158.476 243.467 159 243.655 159.633 243.655C160.611 243.655 161.376 243.3 161.927 242.591L163.175 243.989C162.794 244.528 162.278 244.95 161.628 245.254C160.978 245.553 160.257 245.703 159.466 245.703ZM159.176 237.898C158.672 237.898 158.262 238.068 157.945 238.408C157.635 238.748 157.436 239.234 157.348 239.867H160.881V239.665C160.869 239.102 160.717 238.668 160.424 238.364C160.131 238.053 159.715 237.898 159.176 237.898ZM167.165 236.017L167.244 237.116C167.924 236.266 168.835 235.841 169.978 235.841C170.985 235.841 171.735 236.137 172.228 236.729C172.72 237.321 172.972 238.206 172.983 239.383V245.527H170.443V239.445C170.443 238.906 170.326 238.516 170.092 238.276C169.857 238.03 169.468 237.907 168.923 237.907C168.208 237.907 167.672 238.211 167.314 238.821V245.527H164.774V236.017H167.165ZM177.958 233.679V236.017H179.584V237.88H177.958V242.626C177.958 242.978 178.025 243.23 178.16 243.382C178.295 243.535 178.553 243.611 178.934 243.611C179.215 243.611 179.464 243.59 179.681 243.549V245.474C179.183 245.626 178.67 245.703 178.143 245.703C176.361 245.703 175.453 244.803 175.418 243.004V237.88H174.029V236.017H175.418V233.679H177.958Z" fill="#0C0029"/>
<path d="M302.235 246.527H296.645V245.748L299.598 242.466C300.036 241.97 300.336 241.568 300.5 241.259C300.668 240.947 300.752 240.625 300.752 240.292C300.752 239.847 300.618 239.482 300.348 239.197C300.079 238.912 299.719 238.769 299.27 238.769C298.731 238.769 298.311 238.923 298.01 239.232C297.713 239.537 297.565 239.962 297.565 240.509H296.481C296.481 239.724 296.733 239.089 297.237 238.605C297.745 238.121 298.422 237.878 299.27 237.878C300.063 237.878 300.69 238.087 301.151 238.505C301.612 238.919 301.842 239.472 301.842 240.164C301.842 241.003 301.307 242.003 300.237 243.164L297.952 245.642H302.235V246.527ZM308.733 242.888C308.733 244.158 308.516 245.101 308.083 245.718C307.649 246.335 306.971 246.644 306.049 246.644C305.139 246.644 304.465 246.343 304.028 245.742C303.59 245.136 303.364 244.234 303.348 243.035V241.587C303.348 240.333 303.565 239.402 303.999 238.792C304.432 238.183 305.112 237.878 306.038 237.878C306.956 237.878 307.631 238.173 308.065 238.763C308.499 239.349 308.721 240.255 308.733 241.482V242.888ZM307.649 241.406C307.649 240.488 307.52 239.82 307.262 239.402C307.004 238.98 306.596 238.769 306.038 238.769C305.483 238.769 305.079 238.978 304.825 239.396C304.571 239.814 304.44 240.457 304.432 241.324V243.058C304.432 243.98 304.565 244.662 304.831 245.103C305.1 245.541 305.506 245.759 306.049 245.759C306.584 245.759 306.981 245.552 307.239 245.138C307.5 244.724 307.637 244.072 307.649 243.181V241.406ZM310.45 247.259H309.518L313.081 237.996H314.006L310.45 247.259ZM320.657 246.527H315.067V245.748L318.02 242.466C318.458 241.97 318.758 241.568 318.922 241.259C319.09 240.947 319.174 240.625 319.174 240.292C319.174 239.847 319.04 239.482 318.77 239.197C318.5 238.912 318.141 238.769 317.692 238.769C317.153 238.769 316.733 238.923 316.432 239.232C316.135 239.537 315.987 239.962 315.987 240.509H314.903C314.903 239.724 315.155 239.089 315.659 238.605C316.167 238.121 316.844 237.878 317.692 237.878C318.485 237.878 319.112 238.087 319.573 238.505C320.034 238.919 320.264 239.472 320.264 240.164C320.264 241.003 319.729 242.003 318.659 243.164L316.374 245.642H320.657V246.527ZM327.155 242.888C327.155 244.158 326.938 245.101 326.504 245.718C326.071 246.335 325.393 246.644 324.471 246.644C323.561 246.644 322.887 246.343 322.45 245.742C322.012 245.136 321.786 244.234 321.77 243.035V241.587C321.77 240.333 321.987 239.402 322.42 238.792C322.854 238.183 323.534 237.878 324.459 237.878C325.377 237.878 326.053 238.173 326.487 238.763C326.92 239.349 327.143 240.255 327.155 241.482V242.888ZM326.071 241.406C326.071 240.488 325.942 239.82 325.684 239.402C325.426 238.98 325.018 238.769 324.459 238.769C323.905 238.769 323.5 238.978 323.247 239.396C322.993 239.814 322.862 240.457 322.854 241.324V243.058C322.854 243.98 322.987 244.662 323.252 245.103C323.522 245.541 323.928 245.759 324.471 245.759C325.006 245.759 325.403 245.552 325.661 245.138C325.922 244.724 326.059 244.072 326.071 243.181V241.406Z" fill="#7C7195"/>
<g filter="url(#filter3_d_824_14100)">
<rect x="17" y="300.291" width="327" height="71.7635" rx="6" fill="white"/>
</g>
<rect x="33" y="353.291" width="295" height="3" rx="1.5" fill="#DDD1FB"/>
<rect x="32.936" y="353.146" width="188" height="3" rx="1.5" fill="#692CFF"/>
<path d="M34.1426 333.291V320.494H38.625C40.1777 320.494 41.3555 320.792 42.1582 321.39C42.9609 321.982 43.3623 322.852 43.3623 324C43.3623 324.627 43.2012 325.181 42.8789 325.662C42.5566 326.136 42.1084 326.485 41.5342 326.708C42.1904 326.872 42.7061 327.203 43.0811 327.701C43.4619 328.199 43.6523 328.808 43.6523 329.529C43.6523 330.759 43.2598 331.691 42.4746 332.324C41.6895 332.957 40.5703 333.279 39.1172 333.291H34.1426ZM36.7793 327.718V331.172H39.0381C39.6592 331.172 40.1426 331.026 40.4883 330.733C40.8398 330.434 41.0156 330.024 41.0156 329.502C41.0156 328.331 40.4092 327.736 39.1963 327.718H36.7793ZM36.7793 325.855H38.7305C40.0605 325.832 40.7256 325.301 40.7256 324.264C40.7256 323.684 40.5557 323.268 40.2158 323.016C39.8818 322.758 39.3516 322.629 38.625 322.629H36.7793V325.855ZM50.9824 333.291C50.8652 333.062 50.7803 332.778 50.7275 332.438C50.1123 333.124 49.3125 333.466 48.3281 333.466C47.3965 333.466 46.623 333.197 46.0078 332.658C45.3984 332.119 45.0938 331.439 45.0938 330.619C45.0938 329.611 45.4658 328.837 46.21 328.298C46.96 327.759 48.041 327.487 49.4531 327.481H50.6221V326.936C50.6221 326.497 50.5078 326.145 50.2793 325.881C50.0566 325.618 49.7021 325.486 49.2158 325.486C48.7881 325.486 48.4512 325.588 48.2051 325.793C47.9648 325.999 47.8447 326.28 47.8447 326.637H45.3047C45.3047 326.086 45.4746 325.577 45.8145 325.108C46.1543 324.639 46.6348 324.273 47.2559 324.009C47.877 323.74 48.5742 323.605 49.3477 323.605C50.5195 323.605 51.4482 323.901 52.1338 324.493C52.8252 325.079 53.1709 325.905 53.1709 326.971V331.093C53.1768 331.996 53.3027 332.678 53.5488 333.141V333.291H50.9824ZM48.8818 331.524C49.2568 331.524 49.6025 331.442 49.9189 331.278C50.2354 331.108 50.4697 330.882 50.6221 330.601V328.966H49.6729C48.4014 328.966 47.7246 329.406 47.6426 330.285L47.6338 330.434C47.6338 330.75 47.7451 331.011 47.9678 331.216C48.1904 331.421 48.4951 331.524 48.8818 331.524ZM63.6914 328.624C63.6914 330.147 63.3662 331.336 62.7158 332.192C62.0654 333.042 61.1572 333.466 59.9912 333.466C58.96 333.466 58.1367 333.071 57.5215 332.28L57.4072 333.291H55.1221V319.791H57.6621V324.633C58.248 323.948 59.0186 323.605 59.9736 323.605C61.1338 323.605 62.042 324.033 62.6982 324.888C63.3604 325.738 63.6914 326.936 63.6914 328.483V328.624ZM61.1514 328.439C61.1514 327.478 60.999 326.778 60.6943 326.338C60.3896 325.893 59.9355 325.67 59.332 325.67C58.5234 325.67 57.9668 326.001 57.6621 326.664V330.417C57.9727 331.084 58.5352 331.418 59.3496 331.418C60.1699 331.418 60.709 331.014 60.9668 330.206C61.0898 329.819 61.1514 329.23 61.1514 328.439ZM68.71 329.696L70.4678 323.781H73.1924L69.3691 334.767L69.1582 335.268C68.5898 336.51 67.6523 337.131 66.3457 337.131C65.9766 337.131 65.6016 337.076 65.2207 336.964V335.04L65.6074 335.048C66.0879 335.048 66.4453 334.975 66.6797 334.829C66.9199 334.682 67.1074 334.439 67.2422 334.099L67.541 333.317L64.21 323.781H66.9434L68.71 329.696ZM82.6318 331.418C83.1006 331.418 83.4814 331.29 83.7744 331.032C84.0674 330.774 84.2197 330.431 84.2314 330.003H86.6133C86.6074 330.648 86.4316 331.24 86.0859 331.779C85.7402 332.312 85.2656 332.728 84.6621 333.027C84.0645 333.32 83.4023 333.466 82.6758 333.466C81.3164 333.466 80.2441 333.036 79.459 332.174C78.6738 331.307 78.2812 330.112 78.2812 328.588V328.421C78.2812 326.957 78.6709 325.788 79.4502 324.915C80.2295 324.042 81.2988 323.605 82.6582 323.605C83.8477 323.605 84.7998 323.945 85.5146 324.625C86.2354 325.298 86.6016 326.198 86.6133 327.323H84.2314C84.2197 326.831 84.0674 326.432 83.7744 326.127C83.4814 325.817 83.0947 325.662 82.6143 325.662C82.0225 325.662 81.5742 325.878 81.2695 326.312C80.9707 326.74 80.8213 327.437 80.8213 328.404V328.667C80.8213 329.646 80.9707 330.349 81.2695 330.777C81.5684 331.205 82.0225 331.418 82.6318 331.418ZM93.5742 333.291C93.457 333.062 93.3721 332.778 93.3193 332.438C92.7041 333.124 91.9043 333.466 90.9199 333.466C89.9883 333.466 89.2148 333.197 88.5996 332.658C87.9902 332.119 87.6855 331.439 87.6855 330.619C87.6855 329.611 88.0576 328.837 88.8018 328.298C89.5518 327.759 90.6328 327.487 92.0449 327.481H93.2139V326.936C93.2139 326.497 93.0996 326.145 92.8711 325.881C92.6484 325.618 92.2939 325.486 91.8076 325.486C91.3799 325.486 91.043 325.588 90.7969 325.793C90.5566 325.999 90.4365 326.28 90.4365 326.637H87.8965C87.8965 326.086 88.0664 325.577 88.4062 325.108C88.7461 324.639 89.2266 324.273 89.8477 324.009C90.4688 323.74 91.166 323.605 91.9395 323.605C93.1113 323.605 94.04 323.901 94.7256 324.493C95.417 325.079 95.7627 325.905 95.7627 326.971V331.093C95.7686 331.996 95.8945 332.678 96.1406 333.141V333.291H93.5742ZM91.4736 331.524C91.8486 331.524 92.1943 331.442 92.5107 331.278C92.8271 331.108 93.0615 330.882 93.2139 330.601V328.966H92.2646C90.9932 328.966 90.3164 329.406 90.2344 330.285L90.2256 330.434C90.2256 330.75 90.3369 331.011 90.5596 331.216C90.7822 331.421 91.0869 331.524 91.4736 331.524ZM103.058 326.163C102.712 326.116 102.407 326.092 102.144 326.092C101.183 326.092 100.553 326.417 100.254 327.068V333.291H97.7139V323.781H100.113L100.184 324.915C100.693 324.042 101.399 323.605 102.302 323.605C102.583 323.605 102.847 323.643 103.093 323.719L103.058 326.163ZM108.489 333.466C107.095 333.466 105.958 333.039 105.079 332.183C104.206 331.328 103.77 330.188 103.77 328.764V328.518C103.77 327.563 103.954 326.71 104.323 325.96C104.692 325.205 105.214 324.625 105.888 324.22C106.567 323.81 107.341 323.605 108.208 323.605C109.509 323.605 110.531 324.015 111.275 324.835C112.025 325.656 112.4 326.819 112.4 328.325V329.362H106.345C106.427 329.983 106.673 330.481 107.083 330.856C107.499 331.231 108.023 331.418 108.656 331.418C109.635 331.418 110.399 331.064 110.95 330.355L112.198 331.752C111.817 332.292 111.302 332.713 110.651 333.018C110.001 333.317 109.28 333.466 108.489 333.466ZM108.199 325.662C107.695 325.662 107.285 325.832 106.969 326.171C106.658 326.511 106.459 326.998 106.371 327.63H109.904V327.428C109.893 326.866 109.74 326.432 109.447 326.127C109.154 325.817 108.738 325.662 108.199 325.662Z" fill="#0C0029"/>
<path d="M307.739 325.609V326.529H307.54C306.696 326.544 306.024 326.794 305.524 327.279C305.024 327.763 304.735 328.445 304.657 329.324C305.106 328.808 305.719 328.55 306.497 328.55C307.239 328.55 307.831 328.812 308.272 329.335C308.717 329.859 308.94 330.535 308.94 331.363C308.94 332.242 308.7 332.945 308.219 333.472C307.743 334 307.102 334.263 306.297 334.263C305.481 334.263 304.819 333.951 304.311 333.326C303.803 332.697 303.549 331.888 303.549 330.9V330.484C303.549 328.914 303.883 327.714 304.551 326.886C305.223 326.054 306.221 325.628 307.545 325.609H307.739ZM306.315 329.453C305.944 329.453 305.602 329.564 305.29 329.787C304.977 330.009 304.76 330.289 304.639 330.625V331.023C304.639 331.726 304.797 332.292 305.114 332.722C305.43 333.152 305.825 333.367 306.297 333.367C306.786 333.367 307.168 333.187 307.446 332.828C307.727 332.468 307.868 331.998 307.868 331.416C307.868 330.83 307.725 330.357 307.44 329.998C307.159 329.634 306.784 329.453 306.315 329.453ZM310.551 334.878H309.62L313.182 325.615H314.108L310.551 334.878ZM318.731 334.146H317.641V326.921L315.456 327.724V326.74L318.561 325.574H318.731V334.146ZM327.256 330.507C327.256 331.777 327.04 332.72 326.606 333.337C326.172 333.955 325.495 334.263 324.573 334.263C323.663 334.263 322.989 333.962 322.551 333.361C322.114 332.755 321.887 331.853 321.872 330.654V329.207C321.872 327.953 322.088 327.021 322.522 326.412C322.956 325.802 323.635 325.498 324.561 325.498C325.479 325.498 326.155 325.792 326.588 326.382C327.022 326.968 327.245 327.875 327.256 329.101V330.507ZM326.172 329.025C326.172 328.107 326.043 327.439 325.786 327.021C325.528 326.599 325.12 326.388 324.561 326.388C324.006 326.388 323.602 326.597 323.348 327.015C323.094 327.433 322.963 328.076 322.956 328.943V330.677C322.956 331.599 323.088 332.281 323.354 332.722C323.624 333.16 324.03 333.378 324.573 333.378C325.108 333.378 325.504 333.171 325.762 332.757C326.024 332.343 326.161 331.691 326.172 330.8V329.025Z" fill="#7C7195"/>
<path d="M18.2065 17V4.20312H22.689C24.2417 4.20312 25.4194 4.50195 26.2222 5.09961C27.0249 5.69141 27.4263 6.56152 27.4263 7.70996C27.4263 8.33691 27.2651 8.89062 26.9429 9.37109C26.6206 9.8457 26.1724 10.1943 25.5981 10.417C26.2544 10.5811 26.77 10.9121 27.145 11.4102C27.5259 11.9082 27.7163 12.5176 27.7163 13.2383C27.7163 14.4688 27.3237 15.4004 26.5386 16.0332C25.7534 16.666 24.6343 16.9883 23.1812 17H18.2065ZM20.8433 11.4277V14.8818H23.1021C23.7231 14.8818 24.2065 14.7354 24.5522 14.4424C24.9038 14.1436 25.0796 13.7334 25.0796 13.2119C25.0796 12.04 24.4731 11.4453 23.2603 11.4277H20.8433ZM20.8433 9.56445H22.7944C24.1245 9.54102 24.7896 9.01074 24.7896 7.97363C24.7896 7.39355 24.6196 6.97754 24.2798 6.72559C23.9458 6.46777 23.4155 6.33887 22.689 6.33887H20.8433V9.56445ZM32.2163 17H29.6675V7.49023H32.2163V17ZM29.5181 5.0293C29.5181 4.64844 29.644 4.33496 29.896 4.08887C30.1538 3.84277 30.5024 3.71973 30.9419 3.71973C31.3755 3.71973 31.7212 3.84277 31.979 4.08887C32.2368 4.33496 32.3657 4.64844 32.3657 5.0293C32.3657 5.41602 32.2339 5.73242 31.9702 5.97852C31.7124 6.22461 31.3696 6.34766 30.9419 6.34766C30.5142 6.34766 30.1685 6.22461 29.9048 5.97852C29.647 5.73242 29.5181 5.41602 29.5181 5.0293ZM39.6606 9.87207C39.3149 9.8252 39.0103 9.80176 38.7466 9.80176C37.7856 9.80176 37.1558 10.127 36.8569 10.7773V17H34.3169V7.49023H36.7163L36.7866 8.62402C37.2964 7.75098 38.0024 7.31445 38.9048 7.31445C39.186 7.31445 39.4497 7.35254 39.6958 7.42871L39.6606 9.87207ZM44.3716 5.15234V7.49023H45.9976V9.35352H44.3716V14.0996C44.3716 14.4512 44.439 14.7031 44.5737 14.8555C44.7085 15.0078 44.9663 15.084 45.3472 15.084C45.6284 15.084 45.8774 15.0635 46.0942 15.0225V16.9473C45.5962 17.0996 45.0835 17.1758 44.5562 17.1758C42.7749 17.1758 41.8667 16.2764 41.8315 14.4775V9.35352H40.4429V7.49023H41.8315V5.15234H44.3716ZM49.8911 8.52734C50.5649 7.71875 51.4116 7.31445 52.4312 7.31445C54.4937 7.31445 55.5396 8.5127 55.5688 10.9092V17H53.0288V10.9795C53.0288 10.4346 52.9116 10.0332 52.6772 9.77539C52.4429 9.51172 52.0532 9.37988 51.5083 9.37988C50.7642 9.37988 50.2251 9.66699 49.8911 10.2412V17H47.3511V3.5H49.8911V8.52734ZM70.5278 12.333C70.5278 13.7979 70.1938 14.9727 69.5259 15.8574C68.8638 16.7363 67.9673 17.1758 66.8364 17.1758C65.8755 17.1758 65.0991 16.8418 64.5073 16.1738V20.6562H61.9673V7.49023H64.3228L64.4106 8.42188C65.0259 7.68359 65.8286 7.31445 66.8188 7.31445C67.9907 7.31445 68.9019 7.74805 69.5522 8.61523C70.2026 9.48242 70.5278 10.6777 70.5278 12.2012V12.333ZM67.9878 12.1484C67.9878 11.2637 67.8296 10.5811 67.5132 10.1006C67.2026 9.62012 66.7485 9.37988 66.1509 9.37988C65.354 9.37988 64.8062 9.68457 64.5073 10.2939V14.1875C64.8179 14.8145 65.3716 15.1279 66.1685 15.1279C67.3813 15.1279 67.9878 14.1348 67.9878 12.1484ZM74.7905 17H72.2417V3.5H74.7905V17ZM82.4019 17C82.2847 16.7715 82.1997 16.4873 82.147 16.1475C81.5317 16.833 80.7319 17.1758 79.7476 17.1758C78.8159 17.1758 78.0425 16.9062 77.4272 16.3672C76.8179 15.8281 76.5132 15.1484 76.5132 14.3281C76.5132 13.3203 76.8853 12.5469 77.6294 12.0078C78.3794 11.4688 79.4604 11.1963 80.8726 11.1904H82.0415V10.6455C82.0415 10.2061 81.9272 9.85449 81.6987 9.59082C81.4761 9.32715 81.1216 9.19531 80.6353 9.19531C80.2075 9.19531 79.8706 9.29785 79.6245 9.50293C79.3843 9.70801 79.2642 9.98926 79.2642 10.3467H76.7241C76.7241 9.7959 76.894 9.28613 77.2339 8.81738C77.5737 8.34863 78.0542 7.98242 78.6753 7.71875C79.2964 7.44922 79.9937 7.31445 80.7671 7.31445C81.939 7.31445 82.8677 7.61035 83.5532 8.20215C84.2446 8.78809 84.5903 9.61426 84.5903 10.6807V14.8027C84.5962 15.7051 84.7222 16.3877 84.9683 16.8506V17H82.4019ZM80.3013 15.2334C80.6763 15.2334 81.022 15.1514 81.3384 14.9873C81.6548 14.8174 81.8892 14.5918 82.0415 14.3105V12.6758H81.0923C79.8208 12.6758 79.144 13.1152 79.062 13.9941L79.0532 14.1436C79.0532 14.46 79.1646 14.7207 79.3872 14.9258C79.6099 15.1309 79.9146 15.2334 80.3013 15.2334ZM88.8794 7.49023L88.9585 8.58887C89.6382 7.73926 90.5493 7.31445 91.6919 7.31445C92.6997 7.31445 93.4497 7.61035 93.9419 8.20215C94.4341 8.79395 94.686 9.67871 94.6978 10.8564V17H92.1577V10.918C92.1577 10.3789 92.0405 9.98926 91.8062 9.74902C91.5718 9.50293 91.1821 9.37988 90.6372 9.37988C89.9224 9.37988 89.3862 9.68457 89.0288 10.2939V17H86.4888V7.49023H88.8794ZM101.782 14.3721C101.782 14.0615 101.626 13.8184 101.316 13.6426C101.011 13.4609 100.519 13.2998 99.8394 13.1592C97.5776 12.6846 96.4468 11.7236 96.4468 10.2764C96.4468 9.43262 96.7954 8.72949 97.4927 8.16699C98.1958 7.59863 99.1128 7.31445 100.244 7.31445C101.451 7.31445 102.415 7.59863 103.135 8.16699C103.862 8.73535 104.225 9.47363 104.225 10.3818H101.685C101.685 10.0186 101.568 9.71973 101.333 9.48535C101.099 9.24512 100.733 9.125 100.235 9.125C99.8071 9.125 99.4761 9.22168 99.2417 9.41504C99.0073 9.6084 98.8901 9.85449 98.8901 10.1533C98.8901 10.4346 99.022 10.6631 99.2856 10.8389C99.5552 11.0088 100.006 11.1582 100.639 11.2871C101.272 11.4102 101.805 11.5508 102.239 11.709C103.581 12.2012 104.251 13.0537 104.251 14.2666C104.251 15.1338 103.879 15.8369 103.135 16.376C102.391 16.9092 101.43 17.1758 100.252 17.1758C99.4556 17.1758 98.7466 17.0352 98.1255 16.7539C97.5103 16.4668 97.0269 16.0771 96.6753 15.585C96.3237 15.0869 96.1479 14.5508 96.1479 13.9766H98.5562C98.5796 14.4277 98.7466 14.7734 99.0571 15.0137C99.3677 15.2539 99.7837 15.374 100.305 15.374C100.792 15.374 101.158 15.2832 101.404 15.1016C101.656 14.9141 101.782 14.6709 101.782 14.3721Z" fill="#0C0029"/>
<path d="M313.613 15.3887C313.613 15.0013 313.476 14.7051 313.203 14.5C312.929 14.2904 312.437 14.0716 311.726 13.8438C311.015 13.6113 310.452 13.3835 310.038 13.1602C308.907 12.5495 308.342 11.7269 308.342 10.6924C308.342 10.1546 308.493 9.67611 308.793 9.25684C309.099 8.83301 309.534 8.5026 310.099 8.26562C310.669 8.02865 311.307 7.91016 312.013 7.91016C312.724 7.91016 313.358 8.04004 313.914 8.2998C314.47 8.55501 314.9 8.91732 315.206 9.38672C315.515 9.85612 315.67 10.3893 315.67 10.9863H313.62C313.62 10.5306 313.476 10.1774 313.189 9.92676C312.902 9.67155 312.499 9.54395 311.979 9.54395C311.478 9.54395 311.088 9.65104 310.81 9.86523C310.532 10.0749 310.393 10.3529 310.393 10.6992C310.393 11.0228 310.555 11.2939 310.878 11.5127C311.207 11.7314 311.687 11.9365 312.321 12.1279C313.487 12.4788 314.337 12.9141 314.871 13.4336C315.404 13.9531 315.67 14.6003 315.67 15.375C315.67 16.2363 315.345 16.9131 314.693 17.4053C314.041 17.8929 313.164 18.1367 312.061 18.1367C311.295 18.1367 310.598 17.9977 309.969 17.7197C309.34 17.4372 308.86 17.0521 308.527 16.5645C308.199 16.0768 308.035 15.5117 308.035 14.8691H310.092C310.092 15.9674 310.749 16.5166 312.061 16.5166C312.549 16.5166 312.929 16.4186 313.203 16.2227C313.476 16.0221 313.613 15.7441 313.613 15.3887ZM318.863 11.4102C319.387 10.7812 320.045 10.4668 320.838 10.4668C322.443 10.4668 323.256 11.3988 323.279 13.2627V18H321.303V13.3174C321.303 12.8936 321.212 12.5814 321.03 12.3809C320.847 12.1758 320.544 12.0732 320.121 12.0732C319.542 12.0732 319.123 12.2965 318.863 12.7432V18H316.887V7.5H318.863V11.4102ZM329.055 18C328.964 17.8223 328.898 17.6012 328.857 17.3369C328.378 17.8701 327.756 18.1367 326.991 18.1367C326.266 18.1367 325.665 17.9271 325.186 17.5078C324.712 17.0885 324.475 16.5599 324.475 15.9219C324.475 15.138 324.764 14.5365 325.343 14.1172C325.927 13.6979 326.767 13.486 327.866 13.4814H328.775V13.0576C328.775 12.7158 328.686 12.4424 328.508 12.2373C328.335 12.0322 328.059 11.9297 327.681 11.9297C327.348 11.9297 327.086 12.0094 326.895 12.1689C326.708 12.3285 326.615 12.5472 326.615 12.8252H324.639C324.639 12.3968 324.771 12.0003 325.036 11.6357C325.3 11.2712 325.674 10.9863 326.157 10.7812C326.64 10.5716 327.182 10.4668 327.784 10.4668C328.695 10.4668 329.417 10.6969 329.951 11.1572C330.488 11.613 330.757 12.2555 330.757 13.085V16.291C330.762 16.9928 330.86 17.5238 331.051 17.8838V18H329.055ZM327.421 16.626C327.713 16.626 327.982 16.5622 328.228 16.4346C328.474 16.3024 328.656 16.127 328.775 15.9082V14.6367H328.037C327.048 14.6367 326.521 14.9785 326.458 15.6621L326.451 15.7783C326.451 16.0244 326.537 16.2272 326.71 16.3867C326.884 16.5462 327.121 16.626 327.421 16.626ZM336.431 12.4561C336.162 12.4196 335.925 12.4014 335.72 12.4014C334.973 12.4014 334.483 12.6543 334.25 13.1602V18H332.275V10.6035H334.141L334.196 11.4854C334.592 10.8063 335.141 10.4668 335.843 10.4668C336.062 10.4668 336.267 10.4964 336.458 10.5557L336.431 12.4561ZM340.656 18.1367C339.571 18.1367 338.687 17.804 338.003 17.1387C337.324 16.4733 336.985 15.5869 336.985 14.4795V14.2881C336.985 13.5452 337.128 12.8822 337.416 12.2988C337.703 11.7109 338.108 11.2598 338.632 10.9453C339.161 10.6263 339.763 10.4668 340.437 10.4668C341.449 10.4668 342.244 10.7858 342.823 11.4238C343.406 12.0618 343.698 12.9665 343.698 14.1377V14.9443H338.988C339.052 15.4274 339.243 15.8148 339.562 16.1064C339.886 16.3981 340.293 16.5439 340.786 16.5439C341.547 16.5439 342.141 16.2682 342.57 15.7168L343.541 16.8037C343.244 17.223 342.843 17.5511 342.337 17.7881C341.832 18.0205 341.271 18.1367 340.656 18.1367ZM340.43 12.0664C340.038 12.0664 339.719 12.1986 339.473 12.4629C339.232 12.7272 339.077 13.1055 339.008 13.5977H341.756V13.4404C341.747 13.0029 341.629 12.6657 341.401 12.4287C341.173 12.1872 340.849 12.0664 340.43 12.0664Z" fill="#692CFF"/>
<path d="M297.063 13.5V16.8333C297.063 17.2754 296.887 17.6993 296.575 18.0118C296.262 18.3244 295.838 18.5 295.396 18.5H283.73C283.288 18.5 282.864 18.3244 282.551 18.0118C282.239 17.6993 282.063 17.2754 282.063 16.8333V13.5" stroke="#692CFF" stroke-width="2" stroke-linecap="round" stroke-linejoin="round"/>
<path d="M293.729 7.66675L289.563 3.50008L285.396 7.66675" stroke="#692CFF" stroke-width="2" stroke-linecap="round" stroke-linejoin="round"/>
<path d="M289.563 3.5L289.563 13.5" stroke="#692CFF" stroke-width="2" stroke-linecap="round" stroke-linejoin="round"/>
<defs>
<filter id="filter0_d_824_14100" x="0" y="20" width="361" height="105.763" filterUnits="userSpaceOnUse" color-interpolation-filters="sRGB">
<feFlood flood-opacity="0" result="BackgroundImageFix"/>
<feColorMatrix in="SourceAlpha" type="matrix" values="0 0 0 0 0 0 0 0 0 0 0 0 0 0 0 0 0 0 127 0" result="hardAlpha"/>
<feMorphology radius="6" operator="dilate" in="SourceAlpha" result="effect1_dropShadow_824_14100"/>
<feOffset/>
<feGaussianBlur stdDeviation="5.5"/>
<feComposite in2="hardAlpha" operator="out"/>
<feColorMatrix type="matrix" values="0 0 0 0 0.34902 0 0 0 0 0.27451 0 0 0 0 0.698039 0 0 0 0.06 0"/>
<feBlend mode="normal" in2="BackgroundImageFix" result="effect1_dropShadow_824_14100"/>
<feBlend mode="normal" in="SourceGraphic" in2="effect1_dropShadow_824_14100" result="shape"/>
</filter>
<filter id="filter1_d_824_14100" x="0" y="107.763" width="361" height="105.763" filterUnits="userSpaceOnUse" color-interpolation-filters="sRGB">
<feFlood flood-opacity="0" result="BackgroundImageFix"/>
<feColorMatrix in="SourceAlpha" type="matrix" values="0 0 0 0 0 0 0 0 0 0 0 0 0 0 0 0 0 0 127 0" result="hardAlpha"/>
<feMorphology radius="6" operator="dilate" in="SourceAlpha" result="effect1_dropShadow_824_14100"/>
<feOffset/>
<feGaussianBlur stdDeviation="5.5"/>
<feComposite in2="hardAlpha" operator="out"/>
<feColorMatrix type="matrix" values="0 0 0 0 0.34902 0 0 0 0 0.27451 0 0 0 0 0.698039 0 0 0 0.06 0"/>
<feBlend mode="normal" in2="BackgroundImageFix" result="effect1_dropShadow_824_14100"/>
<feBlend mode="normal" in="SourceGraphic" in2="effect1_dropShadow_824_14100" result="shape"/>
</filter>
<filter id="filter2_d_824_14100" x="0" y="195.527" width="361" height="105.763" filterUnits="userSpaceOnUse" color-interpolation-filters="sRGB">
<feFlood flood-opacity="0" result="BackgroundImageFix"/>
<feColorMatrix in="SourceAlpha" type="matrix" values="0 0 0 0 0 0 0 0 0 0 0 0 0 0 0 0 0 0 127 0" result="hardAlpha"/>
<feMorphology radius="6" operator="dilate" in="SourceAlpha" result="effect1_dropShadow_824_14100"/>
<feOffset/>
<feGaussianBlur stdDeviation="5.5"/>
<feComposite in2="hardAlpha" operator="out"/>
<feColorMatrix type="matrix" values="0 0 0 0 0.34902 0 0 0 0 0.27451 0 0 0 0 0.698039 0 0 0 0.06 0"/>
<feBlend mode="normal" in2="BackgroundImageFix" result="effect1_dropShadow_824_14100"/>
<feBlend mode="normal" in="SourceGraphic" in2="effect1_dropShadow_824_14100" result="shape"/>
</filter>
<filter id="filter3_d_824_14100" x="0" y="283.291" width="361" height="105.763" filterUnits="userSpaceOnUse" color-interpolation-filters="sRGB">
<feFlood flood-opacity="0" result="BackgroundImageFix"/>
<feColorMatrix in="SourceAlpha" type="matrix" values="0 0 0 0 0 0 0 0 0 0 0 0 0 0 0 0 0 0 127 0" result="hardAlpha"/>
<feMorphology radius="6" operator="dilate" in="SourceAlpha" result="effect1_dropShadow_824_14100"/>
<feOffset/>
<feGaussianBlur stdDeviation="5.5"/>
<feComposite in2="hardAlpha" operator="out"/>
<feColorMatrix type="matrix" values="0 0 0 0 0.34902 0 0 0 0 0.27451 0 0 0 0 0.698039 0 0 0 0.06 0"/>
<feBlend mode="normal" in2="BackgroundImageFix" result="effect1_dropShadow_824_14100"/>
<feBlend mode="normal" in="SourceGraphic" in2="effect1_dropShadow_824_14100" result="shape"/>
</filter>
</defs>
</svg>
